<svg xmlns="http://www.w3.org/2000/svg" width="37.604" height="33" viewBox="0 0 37.604 33"><defs><style>.a{fill:#421f10;}</style></defs><path class="a" d="M12.116,22H32.1a1.1,1.1,0,0,0,1.059-.8L37.562,5.8A1.1,1.1,0,0,0,36.5,4.4H9.575L8.787.861A1.1,1.1,0,0,0,7.712,0H1.1a1.1,1.1,0,1,0,0,2.2H6.828l3.978,17.872A3.3,3.3,0,0,0,12.119,26.4H32.1a1.1,1.1,0,1,0,0-2.2H12.119a1.1,1.1,0,1,1,0-2.2ZM35.042,6.6,31.265,19.8H13L10.064,6.6Zm0,0"/><path class="a" d="M150,363.3a3.3,3.3,0,1,0,3.3-3.3A3.3,3.3,0,0,0,150,363.3Zm3.3-1.1a1.1,1.1,0,1,1-1.1,1.1A1.1,1.1,0,0,1,153.3,362.2Zm0,0" transform="translate(-138.979 -333.6)"/><path class="a" d="M362,363.3a3.3,3.3,0,1,0,3.3-3.3A3.3,3.3,0,0,0,362,363.3Zm3.3-1.1a1.1,1.1,0,1,1-1.1,1.1A1.1,1.1,0,0,1,365.3,362.2Zm0,0" transform="translate(-335.395 -333.6)"/></svg>